<?xml version="1.0" encoding="UTF-8" standalone="no"?>
<!-- Created with Inkscape (http://www.inkscape.org/) -->

<svg
   width="346.58536mm"
   height="346.58536mm"
   viewBox="0 0 346.58536 346.58536"
   version="1.1"
   id="svg5"
   inkscape:version="1.2.2 (732a01da63, 2022-12-09)"
   sodipodi:docname="SafetyThird.svg"
   xml:space="preserve"
   xmlns:inkscape="http://www.inkscape.org/namespaces/inkscape"
   xmlns:sodipodi="http://sodipodi.sourceforge.net/DTD/sodipodi-0.dtd"
   xmlns="http://www.w3.org/2000/svg"
   xmlns:svg="http://www.w3.org/2000/svg"><sodipodi:namedview
     id="namedview7"
     pagecolor="#505050"
     bordercolor="#eeeeee"
     borderopacity="1"
     inkscape:showpageshadow="0"
     inkscape:pageopacity="0"
     inkscape:pagecheckerboard="0"
     inkscape:deskcolor="#505050"
     inkscape:document-units="mm"
     showgrid="false"
     showguides="true"
     inkscape:zoom="0.1767767"
     inkscape:cx="-1521.6938"
     inkscape:cy="1408.5567"
     inkscape:window-width="1920"
     inkscape:window-height="1017"
     inkscape:window-x="1912"
     inkscape:window-y="-8"
     inkscape:window-maximized="1"
     inkscape:current-layer="layer1" /><defs
     id="defs2" /><g
     inkscape:label="Layer 1"
     inkscape:groupmode="layer"
     id="layer1"
     transform="translate(-21.617522,162.13301)"><g
       id="g223"
       inkscape:export-filename="SafetyThird.png"
       inkscape:export-xdpi="96"
       inkscape:export-ydpi="96"
       transform="matrix(2.1935783,0,0,2.1935783,-25.802207,-220.15835)"><circle
         style="fill:#ababab;fill-opacity:1;fill-rule:evenodd;stroke:none;stroke-width:0.586225;stroke-linecap:round;stroke-linejoin:round;stroke-dasharray:none;stroke-opacity:1"
         id="path2097-2-1-5-1"
         cx="145.53198"
         cy="-8.03304"
         r="79"
         transform="matrix(0.72915208,0.6843517,0.6843517,-0.72915208,0,0)" /><circle
         style="fill:#000000;fill-opacity:1;fill-rule:evenodd;stroke:none;stroke-width:0.556542;stroke-linecap:round;stroke-linejoin:round;stroke-dasharray:none;stroke-opacity:1"
         id="path2097-2-1-5"
         cx="145.53198"
         cy="-8.033041"
         r="75"
         transform="matrix(0.72915208,0.6843517,0.6843517,-0.72915208,0,0)" /><g
         aria-label="SAFETY"
         id="text19884"
         style="font-weight:bold;font-size:25.6337px;line-height:76.92;font-family:'Iosevka Slab';-inkscape-font-specification:'Iosevka Slab Bold';text-align:end;text-anchor:end;fill:#db1c24;fill-opacity:1;fill-rule:evenodd;stroke-width:0.648867;stroke-linecap:round;stroke-linejoin:round"
         transform="translate(311.35579,23.775749)"><path
           d="m -238.43777,44.443583 q -0.38149,0.342489 -0.84861,0.589605 -0.44804,0.229991 -0.96262,0.347485 -0.49552,0.100369 -1.0023,0.07307 -0.50679,-0.0273 -1.00773,-0.163201 l 1.14734,1.277998 -1.86931,1.678194 -3.09952,-3.452503 1.86931,-1.678194 q 0.30824,0.343343 0.75,0.566815 0.42464,0.204397 0.87615,0.246873 0.47059,0.02535 0.91473,-0.13224 0.44414,-0.157594 0.78748,-0.465833 0.32427,-0.291116 0.50959,-0.698629 0.2044,-0.424637 0.1916,-0.860976 -0.0299,-0.455413 -0.24474,-0.848179 -0.19574,-0.40989 -0.48685,-0.734158 -0.41099,-0.457791 -0.9956,-0.725262 -0.58461,-0.267472 -1.19999,-0.300625 -0.61343,-0.06935 -1.23662,0.04229 -0.62123,0.07544 -1.24442,0.187088 -0.62123,0.07544 -1.24246,0.150888 -0.61929,0.03925 -1.25375,0.02322 -0.63445,-0.01603 -1.24594,-0.12158 -0.60953,-0.14175 -1.17701,-0.390147 -0.56749,-0.248396 -1.09292,-0.60344 -0.50636,-0.372169 -0.93447,-0.849034 -0.37674,-0.419641 -0.66005,-0.888705 -0.30044,-0.488139 -0.50941,-0.989502 -0.22609,-0.520438 -0.32256,-1.088349 -0.0965,-0.56791 0.005,-1.106995 0.0845,-0.55816 0.36522,-1.051295 0.2807,-0.493135 0.70034,-0.869873 0.38149,-0.342489 0.82953,-0.57248 0.46712,-0.247115 0.96263,-0.347485 0.49551,-0.100369 1.0023,-0.07307 0.50679,0.0273 1.00772,0.163202 l -1.14734,-1.277998 1.86932,-1.678194 3.09952,3.452503 -1.86931,1.678194 q -0.30824,-0.343343 -0.73288,-0.54774 -0.40556,-0.221522 -0.87615,-0.246874 -0.45151,-0.04248 -0.89565,0.115116 -0.46127,0.138519 -0.80461,0.446759 -0.32427,0.291115 -0.47339,0.700578 -0.16625,0.390389 -0.11725,0.828678 0.0509,0.402089 0.26576,0.794855 0.19769,0.373692 0.48881,0.69796 0.41098,0.45779 0.99559,0.725262 0.58461,0.267471 1.19804,0.336823 0.61539,0.03315 1.23662,-0.04229 0.62318,-0.111643 1.22729,-0.206162 0.62319,-0.111643 1.24247,-0.150888 0.63836,-0.05637 1.25374,-0.02322 0.61734,-0.003 1.24595,0.121579 0.6286,0.124626 1.19609,0.373023 0.56748,0.248397 1.07384,0.620565 0.52543,0.355044 0.93642,0.812835 0.39386,0.438715 0.6943,0.926854 0.30044,0.488139 0.50746,1.025701 0.20701,0.537562 0.28441,1.122597 0.0603,0.565961 -0.0433,1.141245 -0.10165,0.539085 -0.41855,1.03027 -0.29977,0.51026 -0.71941,0.886997 z"
           style="fill:#db1c24;fill-opacity:1;stroke-width:0.648868"
           id="path29206" /><path
           d="m -233.91574,40.405583 -1.02913,-2.235308 0.83824,-0.385923 -4.00943,-16.186624 2.98041,-1.372171 9.69084,13.570922 0.83824,-0.385923 1.02913,2.235308 -4.26106,1.961776 -1.02913,-2.235308 0.81496,-0.375203 -1.90587,-2.791139 -2.42158,1.114889 0.88135,3.262823 0.81495,-0.375203 1.02913,2.235308 z m 0.87904,-9.491533 1.67648,-0.771847 -2.47622,-3.600907 q -0.14121,-0.245409 -0.3057,-0.480098 -0.16449,-0.234689 -0.32898,-0.469378 0.0714,0.277569 0.1427,0.555139 0.0714,0.277569 0.16599,0.544418 z"
           style="fill:#db1c24;fill-opacity:1;stroke-width:0.648868"
           id="path29208" /><path
           d="m -221.33111,35.126583 -0.31515,-2.440571 0.91521,-0.118182 -1.78258,-13.804482 -0.91521,0.118182 -0.31516,-2.440571 9.60975,-1.240913 0.56793,4.398113 -2.21176,0.285607 -0.25278,-1.957542 -3.63544,0.469446 0.68612,5.313327 3.81339,-0.492425 0.31515,2.440571 -3.81339,0.492426 0.78131,6.050583 1.49994,-0.193687 0.31515,2.440571 z"
           style="fill:#db1c24;fill-opacity:1;stroke-width:0.648868"
           id="path29210" /><path
           d="m -209.11425,33.842506 0.42169,-2.424435 0.88391,0.153741 2.38519,-13.713212 -0.88391,-0.153741 0.42169,-2.424436 10.12707,1.761438 -0.75992,4.369035 -2.19715,-0.382158 0.33823,-1.944599 -4.2175,-0.733566 -0.91806,5.278197 4.39429,0.764315 -0.42169,2.424435 -4.39429,-0.764314 -1.04544,6.010579 4.21751,0.733566 0.33823,-1.944599 2.19714,0.382158 -0.75992,4.369034 z"
           style="fill:#db1c24;fill-opacity:1;stroke-width:0.648868"
           id="path29212" /><path
           d="m -194.49666,37.344255 1.1218,-2.190268 1.61989,0.829665 6.34518,-12.388703 -1.14076,-0.584271 -0.89978,1.756778 -1.98493,-1.016632 2.02158,-3.947045 8.8067,4.510572 -2.02158,3.947045 -1.98493,-1.016631 0.89978,-1.756778 -1.14077,-0.584271 -6.34518,12.388703 1.61989,0.829665 -1.1218,2.190268 z"
           style="fill:#db1c24;fill-opacity:1;stroke-width:0.648868"
           id="path29214" /><path
           d="m -183.34732,44.232133 1.72482,-1.7552 1.07872,1.060042 3.70116,-3.766366 3.82425,-8.353435 -0.80447,-0.790539 1.72481,-1.7552 3.34585,3.287926 -1.72481,1.7552 -0.42052,-0.413237 -2.22622,4.532926 4.49336,-2.305041 -0.42052,-0.413237 1.72481,-1.7552 3.34585,3.287927 -1.72481,1.7552 -0.80447,-0.79054 -8.28538,3.969532 -3.70116,3.766367 1.07872,1.060042 -1.72482,1.7552 z"
           style="fill:#db1c24;fill-opacity:1;stroke-width:0.648868"
           id="path29216" /></g><g
         aria-label="THIRD"
         id="text20265"
         style="font-weight:bold;font-size:25.6337px;line-height:76.92;font-family:'Iosevka Slab';-inkscape-font-specification:'Iosevka Slab Bold';text-align:end;letter-spacing:6.35px;text-anchor:end;fill:#db1c24;fill-opacity:1;fill-rule:evenodd;stroke-width:0.396999;stroke-linecap:round;stroke-linejoin:round"
         transform="translate(311.35579,35.41742)"><path
           d="m -249.98707,124.3155 1.46725,-1.97557 1.4611,1.08514 8.29909,-11.17436 -1.02895,-0.76419 -1.17685,1.58458 -1.79037,-1.32969 2.6441,-3.56016 7.94347,5.89954 -2.64409,3.56016 -1.79037,-1.32969 1.17685,-1.58458 -1.02895,-0.76419 -8.29909,11.17437 1.46111,1.08514 -1.46724,1.97558 z"
           style="fill:#db1c24;fill-opacity:1;stroke-width:0.397"
           id="path24350" /><path
           d="m -235.85504,133.2916 0.78679,-2.33167 0.85009,0.28685 4.45025,-13.1885 -0.85009,-0.28685 0.78679,-2.33167 4.44474,1.49981 -0.78679,2.33167 -0.87437,-0.29505 -1.75388,5.19768 3.64324,1.22935 1.75387,-5.19768 -0.87437,-0.29504 0.78678,-2.33167 4.44474,1.49981 -0.78678,2.33167 -0.85009,-0.28685 -4.45025,13.1885 0.85009,0.28685 -0.78679,2.33167 -4.44474,-1.49981 0.78678,-2.33167 0.87438,0.29504 1.90959,-5.65915 -3.64323,-1.22935 -1.90959,5.65915 0.87437,0.29505 -0.78678,2.33167 z"
           style="fill:#db1c24;fill-opacity:1;stroke-width:0.397"
           id="path24352" /><path
           d="m -216.13194,138.26532 0.0342,-2.46059 3.05012,0.0423 0.19324,-13.91776 -3.05011,-0.0423 0.0342,-2.4606 8.97093,0.12456 -0.0342,2.4606 -3.05012,-0.0423 -0.19325,13.91775 3.05012,0.0423 -0.0342,2.4606 z"
           style="fill:#db1c24;fill-opacity:1;stroke-width:0.397"
           id="path24354" /><path
           d="m -198.18839,137.30454 -0.71983,-2.3532 0.85793,-0.26244 -4.07157,-13.31028 -0.85794,0.26244 -0.71984,-2.35319 5.51531,-1.68712 q 0.68635,-0.20995 1.40068,-0.24082 0.70682,-0.0554 1.38309,0.13985 0.70077,0.18772 1.28994,0.62404 0.60619,0.40431 1.04627,0.96665 0.44008,0.56234 0.74808,1.2187 0.30801,0.65635 0.51796,1.3427 0.23245,0.75989 0.34983,1.58178 0.10988,0.79738 10e-4,1.58121 -0.1087,0.78382 -0.50003,1.52007 -0.36682,0.72875 -0.95569,1.25737 l 3.6037,4.41971 1.42173,-0.4349 0.71983,2.3532 -3.35821,1.02727 -5.01997,-6.15779 -1.20111,0.36742 1.43217,4.68188 0.88245,-0.26993 0.71984,2.35319 z m 0.73149,-10.49053 1.91197,-0.58487 q 0.34318,-0.10497 0.62435,-0.32501 0.27367,-0.24456 0.4193,-0.55717 0.16265,-0.34462 0.21224,-0.70827 0.0496,-0.36365 0.0182,-0.72932 -0.007,-0.37317 -0.0874,-0.72384 -0.0805,-0.35067 -0.18544,-0.69385 -0.10498,-0.34317 -0.23446,-0.67885 -0.12949,-0.33568 -0.33252,-0.64886 -0.17851,-0.32068 -0.42307,-0.59435 -0.24455,-0.27367 -0.56466,-0.44382 -0.30309,-0.20215 -0.65924,-0.22723 -0.36366,-0.0496 -0.70683,0.0554 l -1.91197,0.58486 z"
           style="fill:#db1c24;fill-opacity:1;stroke-width:0.397"
           id="path24356" /><path
           d="m -180.25082,130.53904 -1.41058,-2.01643 0.73515,-0.51427 -7.97858,-11.40542 -0.73516,0.51428 -1.41058,-2.01643 3.84382,-2.68892 q 0.65113,-0.4555 1.35474,-0.79128 0.7246,-0.35048 1.50374,-0.48884 0.77914,-0.13836 1.5645,4.8e-4 0.79166,0.10314 1.49714,0.48556 0.7118,0.34671 1.29332,0.90969 0.56684,0.54197 1.02233,1.19311 l 4.15827,5.94426 q 0.4555,0.65114 0.78498,1.39044 0.31478,0.71829 0.41113,1.52682 0.10266,0.77283 -0.0572,1.57288 -0.15354,0.76435 -0.55065,1.44882 -0.3971,0.68448 -0.97477,1.245 -0.55667,0.54583 -1.20781,1.00133 z m 1.67707,-4.17638 0.75616,-0.52897 q 0.35708,-0.24979 0.64907,-0.5479 0.2983,-0.3338 0.49582,-0.72224 0.19752,-0.38844 0.25224,-0.80212 0.061,-0.44938 -0.0123,-0.86731 -0.0881,-0.43892 -0.29585,-0.82538 -0.18677,-0.40116 -0.43656,-0.75824 l -4.15827,-5.94425 q -0.24979,-0.35708 -0.5626,-0.67007 -0.2918,-0.32769 -0.65923,-0.5399 -0.38213,-0.23322 -0.8105,-0.30895 -0.42207,-0.11143 -0.85468,-0.0591 -0.43262,0.0524 -0.83377,0.23914 -0.39485,0.15108 -0.75192,0.40087 l -0.75616,0.52897 z"
           style="fill:#db1c24;fill-opacity:1;stroke-width:0.397"
           id="path24358" /></g><circle
         style="fill:#ababab;fill-opacity:1;fill-rule:evenodd;stroke:none;stroke-width:0.296823;stroke-linecap:round;stroke-linejoin:round;stroke-dasharray:none;stroke-opacity:1"
         id="path2097-2-1"
         cx="17.064737"
         cy="144.7511"
         r="40"
         transform="rotate(-36.932385)" /><circle
         style="fill:#000000;fill-opacity:1;fill-rule:evenodd;stroke:none;stroke-width:0.27827;stroke-linecap:round;stroke-linejoin:round;stroke-dasharray:none;stroke-opacity:1"
         id="path2097-2-1-8"
         cx="17.064737"
         cy="144.7511"
         r="37.5"
         transform="rotate(-36.932385)" /><path
         id="rect31844-7"
         style="fill:#db1c24;fill-opacity:1;fill-rule:evenodd;stroke-width:0.218376;stroke-linecap:round;stroke-linejoin:round"
         d="m 91.297383,77.491942 v 18.640296 h -18.6403 v 18.640272 h 18.6403 v 18.6403 h 18.640287 v -18.6403 h 18.6403 V 96.132238 h -18.6403 V 77.491942 Z" /><path
         id="path35291"
         style="fill:#ababab;fill-opacity:1;fill-rule:evenodd;stroke:none;stroke-width:0.181229;stroke-linecap:round;stroke-linejoin:round;stroke-dasharray:none;stroke-opacity:1"
         d="m 41.402243,82.904249 c -2.475701,0 -4.468536,1.329345 -4.468536,2.980794 v 11.584945 4.399912 2.6962 l 5.490961,8.38527 v 16.06458 h 0.0037 a 2.7690854,2.3769889 0 0 0 2.768198,2.35218 2.7690854,2.3769889 0 0 0 2.769151,-2.3773 2.7690854,2.3769889 0 0 0 -0.0028,-0.10195 v -15.93075 c 9.35e-4,2.5e-4 0.0019,7.5e-4 0.0028,9.3e-4 l 5.432017,-8.37511 v -2.6962 -4.41779 -11.584945 c 0,-1.651449 -1.99333,-2.980794 -4.469023,-2.980794 z m 1.787316,3.115121 c 0.07948,1.03e-4 0.159328,0.0029 0.231924,0.0078 0.07265,0.0048 0.137945,0.01177 0.189418,0.02126 0.0633,0.01167 0.124845,0.02554 0.185061,0.04155 0.06022,0.01602 0.119094,0.03438 0.176842,0.05508 0.05778,0.0207 0.11469,0.04385 0.170567,0.06958 0.05591,0.02573 0.110661,0.05395 0.165248,0.08504 0.05461,0.03109 0.108931,0.06468 0.162835,0.101471 0.05395,0.03679 0.107566,0.07651 0.161386,0.119346 0.05386,0.04283 0.107547,0.08898 0.161872,0.138193 0.05433,0.04921 0.109342,0.101588 0.164771,0.157519 l 0.205837,0.207772 0.190371,-0.193759 c 0.05554,-0.05636 0.104621,-0.104565 0.149792,-0.147373 0.04516,-0.04281 0.08658,-0.08013 0.127556,-0.114515 0.04096,-0.03438 0.08135,-0.06555 0.124181,-0.09664 0.04283,-0.03109 0.08827,-0.06177 0.139161,-0.09471 0.06311,-0.04085 0.127491,-0.07881 0.193756,-0.113065 0.06629,-0.03426 0.134448,-0.06482 0.203425,-0.09229 0.069,-0.02747 0.138992,-0.05151 0.210185,-0.072 0.07116,-0.02049 0.143536,-0.03742 0.216468,-0.05073 0.05189,-0.0095 0.117561,-0.01692 0.190381,-0.02174 0.07284,-0.0049 0.152466,-0.0071 0.231934,-0.0073 0.07948,-1.18e-4 0.159123,0.0022 0.230961,0.0067 0.07181,0.0046 0.136093,0.01145 0.186024,0.02078 0.04694,0.0088 0.09366,0.01877 0.139646,0.03044 0.046,0.01167 0.09135,0.02468 0.136262,0.03914 0.04488,0.01446 0.0892,0.03068 0.132877,0.04784 0.04367,0.01716 0.08658,0.03532 0.129006,0.05508 0.04236,0.01977 0.08415,0.04102 0.125144,0.0633 0.04095,0.02228 0.08135,0.04585 0.120805,0.07055 0.03937,0.02469 0.0777,0.0503 0.115476,0.07731 0.03777,0.02701 0.07471,0.05532 0.110652,0.08456 0.036,0.02925 0.07125,0.05946 0.10534,0.09084 0.03404,0.03138 0.06695,0.06419 0.09905,0.09761 0.03207,0.03342 0.0633,0.06756 0.09322,0.102919 0.02992,0.03536 0.05881,0.07151 0.08649,0.108718 0.02768,0.03721 0.05395,0.07555 0.0792,0.114515 0.02534,0.03896 0.04965,0.07872 0.07246,0.119348 0.02291,0.04063 0.04451,0.08198 0.0648,0.12418 0.02029,0.0422 0.03899,0.08534 0.05657,0.129011 0.03179,0.07891 0.059,0.155854 0.08116,0.232897 0.01113,0.03852 0.02066,0.07734 0.02945,0.115966 0.0084,0.03863 0.01664,0.07732 0.02319,0.116448 0.01318,0.07826 0.02197,0.158069 0.02656,0.240629 0.0047,0.08256 0.0056,0.16808 0.0019,0.258022 -0.0019,0.05423 -0.0056,0.107254 -0.0096,0.159936 -0.0047,0.05268 -0.01038,0.104712 -0.01739,0.15607 -0.0065,0.05136 -0.01496,0.102427 -0.02468,0.152688 -0.0096,0.05026 -0.02085,0.09991 -0.03338,0.149305 -0.01244,0.04939 -0.02618,0.09814 -0.04152,0.14689 -0.01533,0.04875 -0.03235,0.09758 -0.05077,0.145923 -0.01833,0.04834 -0.03796,0.09632 -0.05947,0.144473 -0.02151,0.04815 -0.04488,0.09628 -0.06957,0.144474 -0.02478,0.0482 -0.05115,0.09649 -0.0792,0.144957 -0.02814,0.04846 -0.05778,0.09696 -0.08939,0.145923 -0.0316,0.04897 -0.0648,0.09816 -0.10002,0.147856 -0.03516,0.0497 -0.07218,0.100107 -0.111128,0.150754 -0.07779,0.101296 -0.16319,0.204692 -0.256572,0.311174 -0.09341,0.106483 -0.195009,0.216042 -0.304894,0.329536 -0.06526,0.06739 -0.142292,0.144664 -0.226136,0.226615 -0.08387,0.08196 -0.174392,0.168585 -0.266231,0.255124 -0.09182,0.08654 -0.185191,0.173007 -0.274458,0.254158 -0.0893,0.08115 -0.174206,0.156966 -0.250289,0.22275 -0.08901,0.07694 -0.197038,0.171384 -0.240143,0.210187 -0.04311,0.03881 -0.148314,0.129926 -0.233869,0.202456 -0.21328,0.180941 -0.852942,0.711186 -1.095872,0.908396 -0.07265,0.05899 -0.189034,0.154965 -0.258507,0.213086 -0.06938,0.05815 -0.128164,0.104972 -0.131904,0.104369 -0.0028,-6.87e-4 -0.107482,-0.08506 -0.231448,-0.18796 -0.123966,-0.102907 -0.375002,-0.310681 -0.55809,-0.461446 -0.176141,-0.145049 -0.342847,-0.283258 -0.5001,-0.415543 -0.157253,-0.132284 -0.305427,-0.258644 -0.445017,-0.379304 -0.139581,-0.120658 -0.270653,-0.235789 -0.393796,-0.345963 -0.123144,-0.110173 -0.238049,-0.215179 -0.345961,-0.316006 -0.107911,-0.100827 -0.208576,-0.197293 -0.302481,-0.289913 -0.0939,-0.09262 -0.181255,-0.181651 -0.262369,-0.267203 -0.08107,-0.08555 -0.156103,-0.167769 -0.22565,-0.247393 -0.06957,-0.07963 -0.133597,-0.156612 -0.192794,-0.231447 -0.103105,-0.130355 -0.162826,-0.206591 -0.209699,-0.272037 -0.04684,-0.06544 -0.08079,-0.119906 -0.132876,-0.206321 -0.03441,-0.05705 -0.06685,-0.113867 -0.09664,-0.170082 -0.02983,-0.05621 -0.05722,-0.112203 -0.08266,-0.16815 -0.02543,-0.05595 -0.0489,-0.111906 -0.07003,-0.16815 -0.02113,-0.05624 -0.03993,-0.112495 -0.05704,-0.169599 -0.01711,-0.0571 -0.03226,-0.114936 -0.04544,-0.173466 -0.01318,-0.05853 -0.0244,-0.117778 -0.03385,-0.178296 -0.0094,-0.06052 -0.0173,-0.122473 -0.02319,-0.185545 -0.0056,-0.06307 -0.0101,-0.127086 -0.01253,-0.193276 -0.0028,-0.06786 -0.0019,-0.135032 4.77e-4,-0.201006 0.0028,-0.06598 0.0075,-0.131118 0.01543,-0.195209 0.0075,-0.06409 0.01758,-0.1272 0.03048,-0.189409 0.01281,-0.06221 0.02842,-0.12328 0.04638,-0.183613 0.01795,-0.06034 0.03824,-0.119837 0.06134,-0.178297 0.02309,-0.05846 0.04909,-0.115907 0.07733,-0.172498 0.02824,-0.05659 0.059,-0.112459 0.09229,-0.167183 0.03329,-0.05473 0.06882,-0.108523 0.107266,-0.161386 0.0245,-0.03369 0.06171,-0.07693 0.105341,-0.124179 0.04366,-0.04726 0.09406,-0.09858 0.145434,-0.14834 0.05133,-0.04975 0.103573,-0.09796 0.151241,-0.139158 0.04769,-0.0412 0.0907,-0.07507 0.123208,-0.09664 0.06854,-0.04544 0.138712,-0.08747 0.210195,-0.125628 0.07144,-0.03815 0.144508,-0.07246 0.217917,-0.10292 0.0734,-0.03046 0.147417,-0.05688 0.221779,-0.07924 0.07433,-0.02237 0.148894,-0.04074 0.223238,-0.05461 0.0504,-0.0094 0.115411,-0.01661 0.187474,-0.02126 0.07209,-0.0047 0.151035,-0.0068 0.230484,-0.0067 z m 0,8.033501 v 4.84e-4 c 0.07948,6.5e-5 0.159328,0.0024 0.231924,0.0073 0.07265,0.0048 0.137945,0.01177 0.189418,0.02126 0.0633,0.01167 0.124845,0.02553 0.185061,0.04155 0.06022,0.01602 0.119094,0.03438 0.176842,0.05508 0.05778,0.0207 0.11469,0.04384 0.170567,0.06958 0.05591,0.02573 0.110661,0.05395 0.165248,0.08504 0.05461,0.03109 0.108931,0.06515 0.162835,0.101953 0.05395,0.03679 0.107566,0.07651 0.161386,0.119347 0.05386,0.04283 0.107547,0.08849 0.161872,0.13771 0.05433,0.04921 0.109342,0.101588 0.164771,0.157519 l 0.205837,0.207769 0.190371,-0.19327 c 0.05554,-0.05637 0.104621,-0.105052 0.149792,-0.147859 0.04516,-0.04281 0.08658,-0.08013 0.127556,-0.114516 0.04096,-0.03438 0.08135,-0.06555 0.124181,-0.09664 0.04283,-0.03109 0.08827,-0.06177 0.139161,-0.09471 0.06311,-0.04085 0.127491,-0.07881 0.193756,-0.113067 0.06629,-0.03426 0.134448,-0.06482 0.203425,-0.09229 0.069,-0.02747 0.138992,-0.05151 0.210185,-0.072 0.07116,-0.02049 0.143536,-0.03742 0.216468,-0.05074 0.05189,-0.0095 0.117561,-0.01692 0.190381,-0.02174 0.07284,-0.0049 0.152466,-0.0071 0.231934,-0.0073 0.07948,-1.17e-4 0.159123,0.0022 0.230961,0.0067 0.07181,0.0046 0.136093,0.01145 0.186024,0.02078 0.04694,0.0088 0.09366,0.01878 0.139646,0.03045 0.046,0.01167 0.09135,0.02516 0.136262,0.03963 0.04488,0.01447 0.0892,0.03019 0.132877,0.04735 0.04367,0.01716 0.08658,0.0358 0.129006,0.05557 0.04236,0.01977 0.08415,0.04053 0.125144,0.06282 0.04095,0.02227 0.08135,0.04585 0.120805,0.07055 0.03937,0.02469 0.0777,0.05078 0.115476,0.07779 0.03777,0.02701 0.07471,0.05483 0.110652,0.08408 0.036,0.02925 0.07125,0.05946 0.10534,0.09084 0.03404,0.03138 0.06695,0.06419 0.09905,0.09761 0.03207,0.03342 0.0633,0.06755 0.09322,0.102918 0.02992,0.03535 0.05881,0.07199 0.08649,0.109198 0.02768,0.03721 0.05395,0.07507 0.0792,0.114036 0.02534,0.03896 0.04965,0.07872 0.07246,0.119346 0.02291,0.04063 0.04451,0.08198 0.0648,0.124182 0.02029,0.0422 0.03899,0.08534 0.05657,0.129015 0.03179,0.07892 0.059,0.156336 0.08116,0.233373 0.01113,0.03852 0.02066,0.07686 0.02945,0.115486 0.0084,0.03862 0.01664,0.07733 0.02319,0.116448 0.01318,0.07826 0.02197,0.158067 0.02656,0.24063 0.0047,0.08256 0.0056,0.16808 0.0019,0.258021 -0.0019,0.05423 -0.0056,0.107257 -0.0096,0.159936 -0.0047,0.05264 -0.01038,0.104714 -0.01739,0.156066 -0.0065,0.05133 -0.01496,0.102432 -0.02468,0.15269 -0.0096,0.0503 -0.02085,0.09992 -0.03338,0.149305 -0.01244,0.04937 -0.02618,0.09814 -0.04152,0.146893 -0.01533,0.04871 -0.03235,0.09758 -0.05077,0.14592 -0.01833,0.04834 -0.03796,0.09632 -0.05947,0.144471 -0.02151,0.04815 -0.04488,0.09628 -0.06957,0.144481 -0.02478,0.04815 -0.05115,0.09649 -0.0792,0.144957 -0.02814,0.04843 -0.05778,0.09695 -0.08939,0.145921 -0.0316,0.049 -0.0648,0.09865 -0.10002,0.148342 -0.03516,0.04965 -0.07218,0.09962 -0.111128,0.150268 -0.07779,0.101292 -0.16319,0.204687 -0.256572,0.311178 -0.09341,0.106481 -0.195009,0.216038 -0.304894,0.329532 -0.06526,0.06741 -0.142292,0.144667 -0.226136,0.226613 -0.08387,0.08191 -0.174392,0.168586 -0.266231,0.255122 -0.09182,0.08658 -0.185191,0.173009 -0.274458,0.25416 -0.0893,0.08116 -0.174206,0.156963 -0.250289,0.222751 -0.08901,0.07695 -0.197038,0.171868 -0.240143,0.210672 -0.04311,0.0388 -0.148314,0.129888 -0.233869,0.202448 -0.21328,0.18095 -0.852942,0.71119 -1.095872,0.9084 -0.07265,0.059 -0.189034,0.15445 -0.258507,0.21261 -0.06938,0.0582 -0.128164,0.10544 -0.131904,0.10484 -0.0028,-7e-4 -0.107482,-0.0855 -0.231448,-0.18843 -0.123966,-0.1029 -0.375002,-0.31068 -0.55809,-0.46145 -0.176141,-0.14505 -0.342847,-0.28327 -0.5001,-0.41554 -0.157253,-0.13229 -0.305427,-0.25865 -0.445017,-0.379307 -0.139581,-0.120665 -0.270653,-0.235795 -0.393796,-0.34597 -0.123144,-0.110165 -0.238049,-0.215178 -0.345961,-0.316002 -0.107911,-0.100824 -0.208576,-0.197291 -0.302481,-0.289914 -0.0939,-0.09257 -0.181255,-0.181648 -0.262369,-0.267203 -0.08107,-0.08555 -0.156103,-0.167772 -0.22565,-0.24739 -0.06957,-0.07966 -0.133597,-0.156617 -0.192794,-0.231448 -0.103105,-0.130361 -0.162826,-0.206594 -0.209699,-0.272037 -0.04684,-0.06545 -0.08079,-0.119908 -0.132876,-0.206323 -0.03441,-0.05704 -0.06685,-0.113381 -0.09664,-0.169595 -0.02983,-0.0562 -0.05722,-0.112204 -0.08266,-0.168156 -0.02543,-0.05591 -0.0489,-0.111904 -0.07003,-0.168146 -0.02113,-0.05629 -0.03993,-0.112979 -0.05704,-0.170081 -0.01711,-0.05713 -0.03226,-0.114934 -0.04544,-0.173467 -0.01318,-0.05853 -0.0244,-0.117776 -0.03385,-0.1783 -0.0094,-0.0605 -0.0173,-0.121984 -0.02319,-0.185061 -0.0056,-0.06311 -0.0101,-0.127566 -0.01253,-0.193756 -0.0028,-0.06788 -0.0019,-0.135037 4.77e-4,-0.201003 0.0028,-0.06601 0.0075,-0.131119 0.01543,-0.195216 0.0075,-0.06405 0.01758,-0.127201 0.03048,-0.189408 0.01281,-0.06218 0.02842,-0.123274 0.04638,-0.183612 0.01795,-0.06031 0.03824,-0.119833 0.06134,-0.178291 0.02309,-0.05844 0.04909,-0.115915 0.07733,-0.172503 0.02824,-0.05659 0.059,-0.112456 0.09229,-0.167183 0.03329,-0.05473 0.06882,-0.108043 0.107266,-0.1609 0.0245,-0.0337 0.06171,-0.07741 0.105341,-0.124664 0.04366,-0.04726 0.09406,-0.0981 0.145434,-0.147856 0.05133,-0.04975 0.103573,-0.09797 0.151241,-0.139159 0.04769,-0.0412 0.0907,-0.07555 0.123208,-0.09712 0.06854,-0.04544 0.138712,-0.08748 0.210195,-0.125629 0.07144,-0.03815 0.144508,-0.07247 0.217917,-0.102919 0.0734,-0.03045 0.147417,-0.05688 0.221779,-0.07924 0.07433,-0.02236 0.148894,-0.04074 0.223238,-0.0546 0.0504,-0.0094 0.115411,-0.01611 0.187474,-0.02078 0.07209,-0.0047 0.151035,-0.0073 0.230484,-0.0073 z m 0,8.033499 c 0.07948,5e-5 0.159328,0.003 0.231924,0.007 0.07265,0.005 0.137945,0.0122 0.189418,0.0218 0.0633,0.0117 0.124845,0.0251 0.185061,0.041 0.06022,0.016 0.119094,0.0344 0.176842,0.0551 0.05778,0.0207 0.11469,0.0439 0.170567,0.0696 0.05591,0.0257 0.110661,0.054 0.165248,0.085 0.05461,0.0311 0.108931,0.0652 0.162835,0.10195 0.05395,0.0367 0.107566,0.0765 0.161386,0.11935 0.05386,0.0428 0.107547,0.089 0.161872,0.13819 0.05433,0.0492 0.109342,0.10159 0.164771,0.15752 l 0.205837,0.20778 0.190371,-0.19377 c 0.05554,-0.0564 0.104621,-0.10456 0.149792,-0.14737 0.04516,-0.0428 0.08658,-0.0801 0.127556,-0.11451 0.04096,-0.0344 0.08135,-0.066 0.124181,-0.0971 0.04283,-0.0311 0.08827,-0.0618 0.139161,-0.0947 0.06311,-0.0409 0.127491,-0.0784 0.193756,-0.11258 0.06629,-0.0342 0.134448,-0.0653 0.203425,-0.0928 0.069,-0.0275 0.138992,-0.0515 0.210185,-0.072 0.07116,-0.0205 0.143536,-0.0374 0.216468,-0.0508 0.05189,-0.009 0.117561,-0.0165 0.190381,-0.0212 0.07284,-0.005 0.152466,-0.007 0.231934,-0.007 0.07948,-1e-4 0.159123,0.002 0.230961,0.007 0.07181,0.005 0.136093,0.0114 0.186024,0.0208 0.04694,0.008 0.09366,0.0193 0.139646,0.031 0.046,0.0117 0.09135,0.0247 0.136262,0.0392 0.04488,0.0145 0.0892,0.0302 0.132877,0.0473 0.04367,0.0171 0.08658,0.0358 0.129006,0.0555 0.04236,0.0197 0.08415,0.0405 0.125144,0.0628 0.04095,0.0222 0.08135,0.0458 0.120805,0.0705 0.03937,0.0247 0.0777,0.0508 0.115476,0.0778 0.03777,0.027 0.07471,0.0554 0.110652,0.0845 0.036,0.0293 0.07125,0.0595 0.10534,0.0908 0.03404,0.0314 0.06695,0.0637 0.09905,0.0971 0.03207,0.0334 0.0633,0.0681 0.09322,0.10341 0.02992,0.0353 0.05881,0.0715 0.08649,0.10871 0.02768,0.0372 0.05395,0.0751 0.0792,0.11403 0.02534,0.039 0.04965,0.0792 0.07246,0.11983 0.02291,0.0407 0.04451,0.082 0.0648,0.12418 0.02029,0.0422 0.03899,0.0849 0.05657,0.12853 0.03179,0.0789 0.059,0.15634 0.08116,0.23339 0.01113,0.0385 0.02066,0.0769 0.02945,0.11547 0.0084,0.0386 0.01664,0.0773 0.02319,0.11645 0.01318,0.0783 0.02197,0.15807 0.02656,0.24063 0.0047,0.0826 0.0056,0.16808 0.0019,0.25802 -0.0019,0.0542 -0.0056,0.10774 -0.0096,0.16042 -0.0047,0.0526 -0.01038,0.10472 -0.01739,0.15607 -0.0065,0.0513 -0.01496,0.10194 -0.02468,0.15221 -0.0096,0.0502 -0.02085,0.0999 -0.03338,0.14931 -0.01244,0.0494 -0.02618,0.0986 -0.04152,0.14737 -0.01533,0.0487 -0.03235,0.0971 -0.05077,0.14543 -0.01833,0.0483 -0.03796,0.0963 -0.05947,0.14448 -0.02151,0.0482 -0.04488,0.0963 -0.06957,0.14447 -0.02478,0.0482 -0.05115,0.0965 -0.0792,0.14496 -0.02814,0.0484 -0.05778,0.0974 -0.08939,0.14641 -0.0316,0.049 -0.0648,0.0982 -0.10002,0.14785 -0.03516,0.0496 -0.07218,0.0996 -0.111128,0.15027 -0.07779,0.1013 -0.16319,0.2047 -0.256572,0.31118 -0.09341,0.10648 -0.195009,0.21604 -0.304894,0.32953 -0.06526,0.0674 -0.142292,0.14467 -0.226136,0.22661 -0.08387,0.0819 -0.174392,0.16859 -0.266231,0.25514 -0.09182,0.0866 -0.185191,0.17299 -0.274458,0.25415 -0.0893,0.0812 -0.174206,0.15696 -0.250289,0.22275 -0.08901,0.077 -0.197038,0.17186 -0.240143,0.21067 -0.04311,0.0388 -0.148314,0.1299 -0.233869,0.20246 -0.21328,0.18094 -0.852942,0.71118 -1.095872,0.90839 -0.07265,0.059 -0.189034,0.15493 -0.258507,0.21309 -0.06938,0.058 -0.128164,0.10498 -0.131904,0.10437 -0.0028,-6.8e-4 -0.107482,-0.0855 -0.231448,-0.18845 -0.123966,-0.1029 -0.375002,-0.31067 -0.55809,-0.46144 -0.176141,-0.14505 -0.342847,-0.28326 -0.5001,-0.41555 -0.157253,-0.13227 -0.305427,-0.25863 -0.445017,-0.3793 -0.139581,-0.12066 -0.270653,-0.23579 -0.393796,-0.34596 -0.123144,-0.11017 -0.238049,-0.21518 -0.345961,-0.31601 -0.107911,-0.10083 -0.208576,-0.19729 -0.302481,-0.28991 -0.0939,-0.0927 -0.181255,-0.18117 -0.262369,-0.26672 -0.08107,-0.0856 -0.156103,-0.16825 -0.22565,-0.24788 -0.06957,-0.0796 -0.133597,-0.15661 -0.192794,-0.23145 -0.103105,-0.13035 -0.162826,-0.20658 -0.209699,-0.27203 -0.04684,-0.0655 -0.08079,-0.11991 -0.132876,-0.20632 -0.03441,-0.057 -0.06685,-0.11339 -0.09664,-0.1696 -0.02983,-0.0562 -0.05722,-0.11221 -0.08266,-0.16815 -0.02543,-0.0559 -0.0489,-0.1119 -0.07003,-0.16815 -0.02113,-0.0562 -0.03993,-0.11297 -0.05704,-0.17009 -0.01711,-0.0571 -0.03226,-0.11444 -0.04544,-0.17298 -0.01318,-0.0585 -0.0244,-0.11826 -0.03385,-0.17877 -0.0094,-0.0605 -0.0173,-0.122 -0.02319,-0.18506 -0.0056,-0.0631 -0.0101,-0.12758 -0.01253,-0.19377 -0.0028,-0.0679 -0.0019,-0.13503 4.77e-4,-0.201 0.0028,-0.066 0.0075,-0.13064 0.01543,-0.19473 0.0075,-0.064 0.01758,-0.1272 0.03048,-0.18941 0.01281,-0.0622 0.02842,-0.12376 0.04638,-0.18409 0.01795,-0.0603 0.03824,-0.11984 0.06134,-0.1783 0.02309,-0.0584 0.04909,-0.1159 0.07733,-0.1725 0.02824,-0.0566 0.059,-0.11197 0.09229,-0.1667 0.03329,-0.0547 0.06882,-0.10852 0.107266,-0.16138 0.0245,-0.0337 0.06171,-0.077 0.105341,-0.12419 0.04366,-0.0472 0.09406,-0.0986 0.145434,-0.14833 0.05133,-0.0497 0.103573,-0.098 0.151241,-0.13916 0.04769,-0.0411 0.0907,-0.0756 0.123208,-0.0971 0.06854,-0.0454 0.138712,-0.0874 0.210195,-0.12563 0.07144,-0.0382 0.144508,-0.0725 0.217917,-0.10292 0.0734,-0.0305 0.147417,-0.0568 0.221779,-0.0792 0.07433,-0.0223 0.148894,-0.0408 0.223238,-0.0546 0.0504,-0.009 0.115411,-0.0161 0.187474,-0.0208 0.07209,-0.005 0.151035,-0.007 0.230484,-0.007 z" /><g
         id="g55299"
         transform="matrix(0.33492594,0.17211063,-0.17211063,0.33492594,88.619326,9.5731113)"><path
           id="rect38205-4-2"
           style="fill:#ababab;fill-opacity:1;fill-rule:evenodd;stroke-width:0.135944;stroke-linecap:round;stroke-linejoin:round"
           d="m 295.02823,142.69009 a 2.5,2.5 0 0 0 -2.79734,2.16239 2.5,2.5 0 0 0 0.46813,1.80053 l -8.6862,-1.11203 c -2.90171,-0.37148 -5.48058,1.2278 -5.78247,3.58595 l -0.15999,1.24967 -0.62925,4.91514 -0.38093,2.97553 a 25.807722,25.807722 0 0 0 -12.66868,19.04079 25.807722,25.807722 0 0 0 22.32157,28.87602 25.807722,25.807722 0 0 0 28.87602,-22.32159 25.807722,25.807722 0 0 0 -7.4614,-21.63404 l 0.3789,-2.95963 0.62925,-4.91515 0.15998,-1.24967 c 0.3019,-2.35814 -1.79089,-4.55551 -4.69263,-4.92699 l -8.31816,-1.06491 a 2.5,2.5 0 0 0 0.90559,-1.62467 2.5,2.5 0 0 0 -2.16239,-2.79734 z m -0.15874,1.23993 a 1.25,1.25 0 0 1 1.0812,1.39867 1.25,1.25 0 0 1 -0.59394,0.91175 c -0.15416,-0.23803 -0.40461,-0.41128 -0.70925,-0.45028 -0.009,-10e-4 -0.017,-0.002 -0.0256,-0.003 -0.30175,-0.0306 -0.5834,0.0785 -0.78773,0.27269 a 1.25,1.25 0 0 1 -0.36333,-1.04836 1.25,1.25 0 0 1 1.39867,-1.08119 z m -1.02431,6.54421 a 2.1185372,2.1185372 0 0 1 1.83254,2.37063 2.1185372,2.1185372 0 0 1 -1.70089,1.80991 l 1.0282,3.44456 -4.20317,-0.5381 1.86276,-3.07445 a 2.1185372,2.1185372 0 0 1 -1.19007,-2.18002 2.1185372,2.1185372 0 0 1 2.37063,-1.83253 z m -1.75749,13.72794 a 16.516941,16.516941 0 0 1 14.28571,18.48051 16.516941,16.516941 0 0 1 -18.48051,14.28571 16.516941,16.516941 0 0 1 -14.28571,-18.48052 16.516941,16.516941 0 0 1 18.48051,-14.2857 z" /><path
           id="rect38205-4-4"
           style="fill:#ababab;fill-opacity:1;fill-rule:evenodd;stroke-width:0.135944;stroke-linecap:round;stroke-linejoin:round"
           d="m 286.3399,130.22692 a 2.5,2.5 0 0 0 -1.1647,-3.33834 2.5,2.5 0 0 0 -1.85609,-0.12645 l 3.8068,-7.88638 c 1.2717,-2.63452 0.57188,-5.58724 -1.56914,-6.62071 l -1.13459,-0.54768 -4.46256,-2.1541 -2.70154,-1.30405 a 25.807722,25.807722 0 0 0 -14.04601,-18.048732 25.807722,25.807722 0 0 0 -34.46056,12.022782 25.807722,25.807722 0 0 0 12.02279,34.46056 25.807722,25.807722 0 0 0 22.8835,-0.22266 l 2.68711,1.29707 4.46257,2.15411 1.1346,0.54768 c 2.141,1.03348 4.88822,-0.25531 6.15994,-2.88985 l 3.64549,-7.55223 a 2.5,2.5 0 0 0 1.25405,1.37368 2.5,2.5 0 0 0 3.33834,-1.1647 z m -1.12576,-0.54341 a 1.25,1.25 0 0 1 -1.66917,0.58235 1.25,1.25 0 0 1 -0.67659,-0.85221 c 0.2746,-0.0708 0.51828,-0.25347 0.65179,-0.53004 0.004,-0.008 0.008,-0.0154 0.0112,-0.0232 0.12459,-0.27653 0.11038,-0.57822 -0.009,-0.83355 a 1.25,1.25 0 0 1 1.10947,-0.0125 1.25,1.25 0 0 1 0.58235,1.66917 z m -5.88252,-3.04496 a 2.1185372,2.1185372 0 0 1 -2.8291,0.98704 2.1185372,2.1185372 0 0 1 -1.17779,-2.18669 l -3.59286,-0.11612 1.84207,-3.81614 2.32588,2.74087 a 2.1185372,2.1185372 0 0 1 2.44476,-0.43811 2.1185372,2.1185372 0 0 1 0.98703,2.8291 z m -12.46388,-6.01637 a 16.516941,16.516941 0 0 1 -22.05459,7.69452 16.516941,16.516941 0 0 1 -7.69454,-22.05459 16.516941,16.516941 0 0 1 22.05461,-7.694526 16.516941,16.516941 0 0 1 7.69452,22.054596 z" /><path
           id="rect52453-4"
           style="fill:#ababab;fill-opacity:1;fill-rule:evenodd;stroke-width:0.076311;stroke-linecap:round;stroke-linejoin:round"
           d="m 291.10734,135.15705 c -1.19534,0.62216 -1.65679,2.08541 -1.03463,3.28074 l 2.25551,4.33341 c 0.62216,1.19533 2.08541,1.65679 3.28074,1.03463 1.19534,-0.62216 1.65679,-2.08542 1.03462,-3.28075 l -2.2555,-4.3334 c -0.62216,-1.19534 -2.08541,-1.65679 -3.28074,-1.03463 z m 0.58073,1.11574 c 0.60797,-0.31644 1.3522,-0.0817 1.66864,0.52622 l 2.19775,4.22244 c 0.31644,0.60797 0.0817,1.35219 -0.52623,1.66864 -0.60797,0.31644 -1.35219,0.0817 -1.66863,-0.52623 l -2.19775,-4.22244 c -0.31644,-0.60797 -0.0817,-1.35218 0.52622,-1.66863 z" /><path
           id="rect52453-4-1"
           style="fill:#ababab;fill-opacity:1;fill-rule:evenodd;stroke-width:0.076311;stroke-linecap:round;stroke-linejoin:round"
           d="m 284.73644,129.7281 c -0.94568,0.96 -0.93415,2.49424 0.0258,3.43992 l 3.48026,3.42835 c 0.95999,0.94568 2.49424,0.93416 3.43992,-0.0258 0.94568,-0.96 0.93415,-2.49425 -0.0259,-3.43993 l -3.48025,-3.42834 c -0.95999,-0.94569 -2.49424,-0.93416 -3.43992,0.0258 z m 0.89607,0.88271 c 0.481,-0.48826 1.26135,-0.49409 1.7496,-0.0131 l 3.39113,3.34056 c 0.48827,0.481 0.4941,1.26134 0.0131,1.7496 -0.481,0.48827 -1.26134,0.4941 -1.7496,0.0131 l -3.39113,-3.34056 c -0.48827,-0.48099 -0.49409,-1.26132 -0.0131,-1.74959 z" /></g></g></g></svg>
